# xmcd
#
# Track frame offsets:
#	150
#	16958
#	37204
#	58169
#	74120
#	88948
#	113479
#	141413
#	147447
#	175190
#	193642
#	209499
#	230597
#	247875
#
# Disc length: 3559 seconds
# Revision: 0
# Processed by: cddbd v1.5.2PL0 Copyright (c) Steve Scherf et al.
# Submitted via: dBpowerAMP V12.0
#
DISCID=da0de50e
DTITLE=Jalan Crossland - Moonshiner
DYEAR=2004
DGENRE=Country
TTITLE0=The Millwhistle
TTITLE1=Climb
TTITLE2=Moonshiner
TTITLE3=Run Through the Corn
TTITLE4=Cherry Lane
TTITLE5=Maggie's Mule
TTITLE6=Junk'n Rocks
TTITLE7=Uncle Dan Does Sally in the Garden
TTITLE8=Chicken Trucker
TTITLE9=Paper Dolls
TTITLE10=Coleman Stove
TTITLE11=Big Horn Mountain Blues
TTITLE12=Bosler
TTITLE13=Red Dirt
EXTD=
EXTT0=
EXTT1=
EXTT2=
EXTT3=
EXTT4=
EXTT5=
EXTT6=
EXTT7=
EXTT8=
EXTT9=
EXTT10=
EXTT11=
EXTT12=
EXTT13=
PLAYORDER=
